<mxfile host="app.diagrams.net" agent="Mozilla/5.0 (Windows NT 10.0; Win64; x64; rv:137.0) Gecko/20100101 Firefox/137.0" version="26.2.13">
  <diagram name="Page-1" id="NtBqkps6XmYwAPOiUv5h">
    <mxGraphModel dx="1612" dy="1133" grid="1" gridSize="10" guides="1" tooltips="1" connect="1" arrows="1" fold="1" page="1" pageScale="1" pageWidth="850" pageHeight="1100" math="0" shadow="0">
      <root>
        <mxCell id="0" />
        <mxCell id="1" parent="0" />
        <mxCell id="BD0k8di83b8WuerWBVUI-1" value="" style="ellipse;whiteSpace=wrap;html=1;aspect=fixed;fillColor=#DADADA;fontColor=#333333;strokeColor=#666666;strokeWidth=3;fillStyle=solid;" vertex="1" parent="1">
          <mxGeometry x="590" y="350" width="40" height="40" as="geometry" />
        </mxCell>
        <mxCell id="BD0k8di83b8WuerWBVUI-3" value="" style="ellipse;whiteSpace=wrap;html=1;aspect=fixed;fillColor=#DADADA;fontColor=#333333;strokeColor=#666666;strokeWidth=3;fillStyle=solid;" vertex="1" parent="1">
          <mxGeometry x="160" y="360" width="40" height="40" as="geometry" />
        </mxCell>
        <mxCell id="BD0k8di83b8WuerWBVUI-4" value="" style="ellipse;whiteSpace=wrap;html=1;aspect=fixed;fillColor=#DADADA;fontColor=#333333;strokeColor=#666666;strokeWidth=3;fillStyle=solid;opacity=30;" vertex="1" parent="1">
          <mxGeometry x="650" y="430" width="40" height="40" as="geometry" />
        </mxCell>
        <mxCell id="BD0k8di83b8WuerWBVUI-6" value="" style="ellipse;whiteSpace=wrap;html=1;aspect=fixed;fillColor=#DADADA;fontColor=#333333;strokeColor=#666666;strokeWidth=3;fillStyle=solid;opacity=30;" vertex="1" parent="1">
          <mxGeometry x="520" y="390" width="40" height="40" as="geometry" />
        </mxCell>
        <mxCell id="BD0k8di83b8WuerWBVUI-8" value="" style="ellipse;whiteSpace=wrap;html=1;aspect=fixed;fillColor=#DADADA;fontColor=#333333;strokeColor=#666666;strokeWidth=3;fillStyle=solid;opacity=30;" vertex="1" parent="1">
          <mxGeometry x="580" y="450" width="40" height="40" as="geometry" />
        </mxCell>
        <mxCell id="BD0k8di83b8WuerWBVUI-9" value="" style="ellipse;whiteSpace=wrap;html=1;aspect=fixed;fillColor=#DADADA;fontColor=#333333;strokeColor=#666666;strokeWidth=3;fillStyle=solid;opacity=30;" vertex="1" parent="1">
          <mxGeometry x="450" y="320" width="40" height="40" as="geometry" />
        </mxCell>
        <mxCell id="BD0k8di83b8WuerWBVUI-10" value="" style="ellipse;whiteSpace=wrap;html=1;aspect=fixed;fillColor=#DADADA;fontColor=#333333;strokeColor=#666666;strokeWidth=3;fillStyle=solid;opacity=30;" vertex="1" parent="1">
          <mxGeometry x="700" y="270" width="40" height="40" as="geometry" />
        </mxCell>
        <mxCell id="BD0k8di83b8WuerWBVUI-11" value="" style="ellipse;whiteSpace=wrap;html=1;aspect=fixed;fillColor=#DADADA;fontColor=#333333;strokeColor=#666666;strokeWidth=3;fillStyle=solid;opacity=30;" vertex="1" parent="1">
          <mxGeometry x="730" y="360" width="40" height="40" as="geometry" />
        </mxCell>
        <mxCell id="BD0k8di83b8WuerWBVUI-12" value="" style="ellipse;whiteSpace=wrap;html=1;aspect=fixed;fillColor=#DADADA;fontColor=#333333;strokeColor=#666666;strokeWidth=3;fillStyle=solid;opacity=30;" vertex="1" parent="1">
          <mxGeometry x="555" y="290" width="40" height="40" as="geometry" />
        </mxCell>
        <mxCell id="BD0k8di83b8WuerWBVUI-22" value="" style="ellipse;whiteSpace=wrap;html=1;aspect=fixed;fillColor=#DADADA;fontColor=#333333;strokeColor=#666666;strokeWidth=3;fillStyle=solid;" vertex="1" parent="1">
          <mxGeometry x="1015" y="350" width="40" height="40" as="geometry" />
        </mxCell>
        <mxCell id="BD0k8di83b8WuerWBVUI-23" value="" style="ellipse;whiteSpace=wrap;html=1;aspect=fixed;fillColor=#DADADA;fontColor=#333333;strokeColor=#666666;strokeWidth=3;fillStyle=solid;opacity=30;" vertex="1" parent="1">
          <mxGeometry x="1075" y="430" width="40" height="40" as="geometry" />
        </mxCell>
        <mxCell id="BD0k8di83b8WuerWBVUI-24" value="" style="ellipse;whiteSpace=wrap;html=1;aspect=fixed;fillColor=#DADADA;fontColor=#333333;strokeColor=#666666;strokeWidth=3;fillStyle=solid;opacity=30;" vertex="1" parent="1">
          <mxGeometry x="945" y="390" width="40" height="40" as="geometry" />
        </mxCell>
        <mxCell id="BD0k8di83b8WuerWBVUI-25" value="" style="ellipse;whiteSpace=wrap;html=1;aspect=fixed;fillColor=#DADADA;fontColor=#333333;strokeColor=#666666;strokeWidth=3;fillStyle=solid;opacity=30;" vertex="1" parent="1">
          <mxGeometry x="1005" y="450" width="40" height="40" as="geometry" />
        </mxCell>
        <mxCell id="BD0k8di83b8WuerWBVUI-30" style="rounded=0;orthogonalLoop=1;jettySize=auto;html=1;exitX=0.341;exitY=0.989;exitDx=0;exitDy=0;strokeWidth=4;sketch=1;curveFitting=1;jiggle=2;strokeColor=#424242;exitPerimeter=0;" edge="1" parent="1" source="BD0k8di83b8WuerWBVUI-26">
          <mxGeometry relative="1" as="geometry">
            <mxPoint x="860" y="420" as="targetPoint" />
          </mxGeometry>
        </mxCell>
        <mxCell id="BD0k8di83b8WuerWBVUI-26" value="" style="ellipse;whiteSpace=wrap;html=1;aspect=fixed;fillColor=#DADADA;fontColor=#333333;strokeColor=#666666;strokeWidth=3;fillStyle=solid;opacity=30;" vertex="1" parent="1">
          <mxGeometry x="875" y="320" width="40" height="40" as="geometry" />
        </mxCell>
        <mxCell id="BD0k8di83b8WuerWBVUI-27" value="" style="ellipse;whiteSpace=wrap;html=1;aspect=fixed;fillColor=#DADADA;fontColor=#333333;strokeColor=#666666;strokeWidth=3;fillStyle=solid;opacity=30;" vertex="1" parent="1">
          <mxGeometry x="1125" y="270" width="40" height="40" as="geometry" />
        </mxCell>
        <mxCell id="BD0k8di83b8WuerWBVUI-28" value="" style="ellipse;whiteSpace=wrap;html=1;aspect=fixed;fillColor=#DADADA;fontColor=#333333;strokeColor=#666666;strokeWidth=3;fillStyle=solid;opacity=30;" vertex="1" parent="1">
          <mxGeometry x="1155" y="360" width="40" height="40" as="geometry" />
        </mxCell>
        <mxCell id="BD0k8di83b8WuerWBVUI-29" value="" style="ellipse;whiteSpace=wrap;html=1;aspect=fixed;fillColor=#DADADA;fontColor=#333333;strokeColor=#666666;strokeWidth=3;fillStyle=solid;opacity=30;" vertex="1" parent="1">
          <mxGeometry x="980" y="290" width="40" height="40" as="geometry" />
        </mxCell>
        <mxCell id="BD0k8di83b8WuerWBVUI-31" style="rounded=0;orthogonalLoop=1;jettySize=auto;html=1;strokeWidth=4;sketch=1;curveFitting=1;jiggle=2;strokeColor=#424242;" edge="1" parent="1">
          <mxGeometry relative="1" as="geometry">
            <mxPoint x="950" y="329" as="targetPoint" />
            <mxPoint x="960" y="389" as="sourcePoint" />
          </mxGeometry>
        </mxCell>
        <mxCell id="BD0k8di83b8WuerWBVUI-32" style="rounded=0;orthogonalLoop=1;jettySize=auto;html=1;strokeWidth=6;sketch=1;curveFitting=1;jiggle=2;strokeColor=#424242;" edge="1" parent="1">
          <mxGeometry relative="1" as="geometry">
            <mxPoint x="1100" y="330" as="targetPoint" />
            <mxPoint x="1020" y="310" as="sourcePoint" />
          </mxGeometry>
        </mxCell>
        <mxCell id="BD0k8di83b8WuerWBVUI-33" style="rounded=0;orthogonalLoop=1;jettySize=auto;html=1;strokeWidth=3;sketch=1;curveFitting=1;jiggle=2;strokeColor=#424242;exitX=0;exitY=0.5;exitDx=0;exitDy=0;" edge="1" parent="1" source="BD0k8di83b8WuerWBVUI-25">
          <mxGeometry relative="1" as="geometry">
            <mxPoint x="920" y="450" as="targetPoint" />
            <mxPoint x="1025" y="450" as="sourcePoint" />
          </mxGeometry>
        </mxCell>
        <mxCell id="BD0k8di83b8WuerWBVUI-34" style="rounded=0;orthogonalLoop=1;jettySize=auto;html=1;strokeWidth=4;sketch=1;curveFitting=1;jiggle=2;strokeColor=#424242;" edge="1" parent="1">
          <mxGeometry relative="1" as="geometry">
            <mxPoint x="990" y="420" as="targetPoint" />
            <mxPoint x="1070" y="440" as="sourcePoint" />
          </mxGeometry>
        </mxCell>
        <mxCell id="BD0k8di83b8WuerWBVUI-36" style="rounded=0;orthogonalLoop=1;jettySize=auto;html=1;strokeWidth=4;sketch=1;curveFitting=1;jiggle=2;strokeColor=#424242;exitX=0.971;exitY=0.738;exitDx=0;exitDy=0;exitPerimeter=0;entryX=0.335;entryY=-0.085;entryDx=0;entryDy=0;entryPerimeter=0;" edge="1" parent="1" source="BD0k8di83b8WuerWBVUI-22" target="BD0k8di83b8WuerWBVUI-23">
          <mxGeometry relative="1" as="geometry">
            <mxPoint x="1100" y="420" as="targetPoint" />
            <mxPoint x="1125" y="395" as="sourcePoint" />
          </mxGeometry>
        </mxCell>
        <mxCell id="BD0k8di83b8WuerWBVUI-37" style="rounded=0;orthogonalLoop=1;jettySize=auto;html=1;strokeWidth=4;sketch=1;curveFitting=1;jiggle=2;strokeColor=#424242;exitX=0.5;exitY=1;exitDx=0;exitDy=0;" edge="1" parent="1" source="BD0k8di83b8WuerWBVUI-27">
          <mxGeometry relative="1" as="geometry">
            <mxPoint x="1120" y="390" as="targetPoint" />
            <mxPoint x="1140" y="320" as="sourcePoint" />
          </mxGeometry>
        </mxCell>
        <mxCell id="BD0k8di83b8WuerWBVUI-38" style="rounded=0;orthogonalLoop=1;jettySize=auto;html=1;strokeWidth=4;sketch=1;curveFitting=1;jiggle=2;strokeColor=#424242;exitX=0.5;exitY=1;exitDx=0;exitDy=0;" edge="1" parent="1">
          <mxGeometry relative="1" as="geometry">
            <mxPoint x="1120" y="440" as="targetPoint" />
            <mxPoint x="1157.5" y="400" as="sourcePoint" />
          </mxGeometry>
        </mxCell>
        <mxCell id="BD0k8di83b8WuerWBVUI-40" style="rounded=0;orthogonalLoop=1;jettySize=auto;html=1;exitX=1.039;exitY=0.202;exitDx=0;exitDy=0;strokeWidth=4;sketch=1;curveFitting=1;jiggle=2;strokeColor=#424242;exitPerimeter=0;entryX=0;entryY=0.5;entryDx=0;entryDy=0;" edge="1" parent="1" source="BD0k8di83b8WuerWBVUI-26" target="BD0k8di83b8WuerWBVUI-29">
          <mxGeometry relative="1" as="geometry">
            <mxPoint x="1020" y="440" as="targetPoint" />
            <mxPoint x="899" y="370" as="sourcePoint" />
          </mxGeometry>
        </mxCell>
        <mxCell id="BD0k8di83b8WuerWBVUI-58" value="" style="ellipse;whiteSpace=wrap;html=1;aspect=fixed;fillColor=#DADADA;fontColor=#333333;strokeColor=#666666;strokeWidth=3;fillStyle=solid;" vertex="1" parent="1">
          <mxGeometry x="1495" y="360" width="40" height="40" as="geometry" />
        </mxCell>
        <mxCell id="BD0k8di83b8WuerWBVUI-59" value="" style="ellipse;whiteSpace=wrap;html=1;aspect=fixed;fillColor=#DADADA;fontColor=#333333;strokeColor=#666666;strokeWidth=3;fillStyle=solid;" vertex="1" parent="1">
          <mxGeometry x="1555" y="440" width="40" height="40" as="geometry" />
        </mxCell>
        <mxCell id="BD0k8di83b8WuerWBVUI-60" value="" style="ellipse;whiteSpace=wrap;html=1;aspect=fixed;fillColor=#DADADA;fontColor=#333333;strokeColor=#666666;strokeWidth=3;fillStyle=solid;" vertex="1" parent="1">
          <mxGeometry x="1425" y="400" width="40" height="40" as="geometry" />
        </mxCell>
        <mxCell id="BD0k8di83b8WuerWBVUI-61" value="" style="ellipse;whiteSpace=wrap;html=1;aspect=fixed;fillColor=#DADADA;fontColor=#333333;strokeColor=#666666;strokeWidth=3;fillStyle=solid;" vertex="1" parent="1">
          <mxGeometry x="1485" y="460" width="40" height="40" as="geometry" />
        </mxCell>
        <mxCell id="BD0k8di83b8WuerWBVUI-63" value="" style="ellipse;whiteSpace=wrap;html=1;aspect=fixed;fillColor=#DADADA;fontColor=#333333;strokeColor=#666666;strokeWidth=3;fillStyle=solid;" vertex="1" parent="1">
          <mxGeometry x="1355" y="330" width="40" height="40" as="geometry" />
        </mxCell>
        <mxCell id="BD0k8di83b8WuerWBVUI-64" value="" style="ellipse;whiteSpace=wrap;html=1;aspect=fixed;fillColor=#DADADA;fontColor=#333333;strokeColor=#666666;strokeWidth=3;fillStyle=solid;" vertex="1" parent="1">
          <mxGeometry x="1605" y="280" width="40" height="40" as="geometry" />
        </mxCell>
        <mxCell id="BD0k8di83b8WuerWBVUI-65" value="" style="ellipse;whiteSpace=wrap;html=1;aspect=fixed;fillColor=#DADADA;fontColor=#333333;strokeColor=#666666;strokeWidth=3;fillStyle=solid;" vertex="1" parent="1">
          <mxGeometry x="1635" y="370" width="40" height="40" as="geometry" />
        </mxCell>
        <mxCell id="BD0k8di83b8WuerWBVUI-66" value="" style="ellipse;whiteSpace=wrap;html=1;aspect=fixed;fillColor=#DADADA;fontColor=#333333;strokeColor=#666666;strokeWidth=3;fillStyle=solid;" vertex="1" parent="1">
          <mxGeometry x="1460" y="300" width="40" height="40" as="geometry" />
        </mxCell>
        <mxCell id="BD0k8di83b8WuerWBVUI-67" style="rounded=0;orthogonalLoop=1;jettySize=auto;html=1;strokeWidth=4;sketch=1;curveFitting=1;jiggle=2;strokeColor=#424242;exitX=-0.063;exitY=0.323;exitDx=0;exitDy=0;exitPerimeter=0;" edge="1" parent="1" source="BD0k8di83b8WuerWBVUI-60">
          <mxGeometry relative="1" as="geometry">
            <mxPoint x="1380" y="380" as="targetPoint" />
            <mxPoint x="1440" y="399" as="sourcePoint" />
          </mxGeometry>
        </mxCell>
        <mxCell id="BD0k8di83b8WuerWBVUI-68" style="rounded=0;orthogonalLoop=1;jettySize=auto;html=1;strokeWidth=6;sketch=1;curveFitting=1;jiggle=2;strokeColor=#424242;" edge="1" parent="1">
          <mxGeometry relative="1" as="geometry">
            <mxPoint x="1600" y="300" as="targetPoint" />
            <mxPoint x="1500" y="320" as="sourcePoint" />
          </mxGeometry>
        </mxCell>
        <mxCell id="BD0k8di83b8WuerWBVUI-69" style="rounded=0;orthogonalLoop=1;jettySize=auto;html=1;strokeWidth=3;sketch=1;curveFitting=1;jiggle=2;strokeColor=#424242;exitX=0.5;exitY=1;exitDx=0;exitDy=0;" edge="1" parent="1" source="BD0k8di83b8WuerWBVUI-60">
          <mxGeometry relative="1" as="geometry">
            <mxPoint x="1480" y="470" as="targetPoint" />
            <mxPoint x="1505" y="460" as="sourcePoint" />
          </mxGeometry>
        </mxCell>
        <mxCell id="BD0k8di83b8WuerWBVUI-70" style="rounded=0;orthogonalLoop=1;jettySize=auto;html=1;strokeWidth=4;sketch=1;curveFitting=1;jiggle=2;strokeColor=#424242;" edge="1" parent="1">
          <mxGeometry relative="1" as="geometry">
            <mxPoint x="1470" y="430" as="targetPoint" />
            <mxPoint x="1550" y="450" as="sourcePoint" />
          </mxGeometry>
        </mxCell>
        <mxCell id="BD0k8di83b8WuerWBVUI-71" style="rounded=0;orthogonalLoop=1;jettySize=auto;html=1;strokeWidth=4;sketch=1;curveFitting=1;jiggle=2;strokeColor=#424242;exitX=0.971;exitY=0.738;exitDx=0;exitDy=0;exitPerimeter=0;entryX=0.335;entryY=-0.085;entryDx=0;entryDy=0;entryPerimeter=0;" edge="1" parent="1" source="BD0k8di83b8WuerWBVUI-58" target="BD0k8di83b8WuerWBVUI-59">
          <mxGeometry relative="1" as="geometry">
            <mxPoint x="1580" y="430" as="targetPoint" />
            <mxPoint x="1605" y="405" as="sourcePoint" />
          </mxGeometry>
        </mxCell>
        <mxCell id="BD0k8di83b8WuerWBVUI-72" style="rounded=0;orthogonalLoop=1;jettySize=auto;html=1;strokeWidth=4;sketch=1;curveFitting=1;jiggle=2;strokeColor=#424242;exitX=0.682;exitY=0.995;exitDx=0;exitDy=0;exitPerimeter=0;entryX=0.5;entryY=0;entryDx=0;entryDy=0;" edge="1" parent="1" source="BD0k8di83b8WuerWBVUI-64" target="BD0k8di83b8WuerWBVUI-65">
          <mxGeometry relative="1" as="geometry">
            <mxPoint x="1650" y="350" as="targetPoint" />
            <mxPoint x="1620" y="330" as="sourcePoint" />
          </mxGeometry>
        </mxCell>
        <mxCell id="BD0k8di83b8WuerWBVUI-73" style="rounded=0;orthogonalLoop=1;jettySize=auto;html=1;strokeWidth=4;sketch=1;curveFitting=1;jiggle=2;strokeColor=#424242;exitX=0.5;exitY=1;exitDx=0;exitDy=0;" edge="1" parent="1">
          <mxGeometry relative="1" as="geometry">
            <mxPoint x="1600" y="450" as="targetPoint" />
            <mxPoint x="1637.5" y="410" as="sourcePoint" />
          </mxGeometry>
        </mxCell>
        <mxCell id="BD0k8di83b8WuerWBVUI-74" style="rounded=0;orthogonalLoop=1;jettySize=auto;html=1;strokeWidth=4;sketch=1;curveFitting=1;jiggle=2;strokeColor=#424242;entryX=1;entryY=0;entryDx=0;entryDy=0;exitX=-0.134;exitY=0.579;exitDx=0;exitDy=0;exitPerimeter=0;" edge="1" parent="1" source="BD0k8di83b8WuerWBVUI-66" target="BD0k8di83b8WuerWBVUI-63">
          <mxGeometry relative="1" as="geometry">
            <mxPoint x="1500" y="450" as="targetPoint" />
            <mxPoint x="1420" y="290" as="sourcePoint" />
          </mxGeometry>
        </mxCell>
        <mxCell id="BD0k8di83b8WuerWBVUI-75" style="rounded=0;orthogonalLoop=1;jettySize=auto;html=1;strokeWidth=4;sketch=1;curveFitting=1;jiggle=2;strokeColor=#424242;exitX=0.965;exitY=0.313;exitDx=0;exitDy=0;exitPerimeter=0;entryX=0;entryY=1;entryDx=0;entryDy=0;" edge="1" parent="1" source="BD0k8di83b8WuerWBVUI-58" target="BD0k8di83b8WuerWBVUI-64">
          <mxGeometry relative="1" as="geometry">
            <mxPoint x="1578" y="447" as="targetPoint" />
            <mxPoint x="1544" y="400" as="sourcePoint" />
          </mxGeometry>
        </mxCell>
        <mxCell id="BD0k8di83b8WuerWBVUI-332" value="" style="ellipse;whiteSpace=wrap;html=1;aspect=fixed;fillColor=#DADADA;fontColor=#333333;strokeColor=#666666;strokeWidth=3;fillStyle=solid;" vertex="1" parent="1">
          <mxGeometry x="1870" y="460" width="40" height="40" as="geometry" />
        </mxCell>
        <mxCell id="BD0k8di83b8WuerWBVUI-333" value="" style="ellipse;whiteSpace=wrap;html=1;aspect=fixed;fillColor=#DADADA;strokeColor=#666666;strokeWidth=3;fillStyle=solid;fontColor=#333333;" vertex="1" parent="1">
          <mxGeometry x="1870" y="375" width="40" height="40" as="geometry" />
        </mxCell>
        <mxCell id="BD0k8di83b8WuerWBVUI-334" value="" style="ellipse;whiteSpace=wrap;html=1;aspect=fixed;fillColor=#DADADA;strokeColor=#666666;strokeWidth=3;fillStyle=solid;fontColor=#333333;" vertex="1" parent="1">
          <mxGeometry x="1780" y="373" width="40" height="40" as="geometry" />
        </mxCell>
        <mxCell id="BD0k8di83b8WuerWBVUI-335" value="" style="ellipse;whiteSpace=wrap;html=1;aspect=fixed;fillColor=#DADADA;strokeColor=#666666;strokeWidth=3;fillStyle=solid;fontColor=#333333;" vertex="1" parent="1">
          <mxGeometry x="1890" y="220" width="40" height="40" as="geometry" />
        </mxCell>
        <mxCell id="BD0k8di83b8WuerWBVUI-336" value="" style="ellipse;whiteSpace=wrap;html=1;aspect=fixed;fillColor=#DADADA;fontColor=#333333;strokeColor=#666666;strokeWidth=3;fillStyle=solid;" vertex="1" parent="1">
          <mxGeometry x="1890" y="130" width="40" height="40" as="geometry" />
        </mxCell>
        <mxCell id="BD0k8di83b8WuerWBVUI-337" value="" style="ellipse;whiteSpace=wrap;html=1;aspect=fixed;fillColor=#DADADA;strokeColor=#666666;strokeWidth=3;fillStyle=solid;fontColor=#333333;" vertex="1" parent="1">
          <mxGeometry x="1960" y="373" width="40" height="40" as="geometry" />
        </mxCell>
        <mxCell id="BD0k8di83b8WuerWBVUI-338" value="" style="ellipse;whiteSpace=wrap;html=1;aspect=fixed;fillColor=#DADADA;strokeColor=#666666;strokeWidth=3;fillStyle=solid;fontColor=#333333;" vertex="1" parent="1">
          <mxGeometry x="1820" y="290" width="40" height="40" as="geometry" />
        </mxCell>
        <mxCell id="BD0k8di83b8WuerWBVUI-339" style="rounded=0;orthogonalLoop=1;jettySize=auto;html=1;strokeWidth=4;sketch=1;curveFitting=1;jiggle=2;strokeColor=#424242;exitX=0.5;exitY=0;exitDx=0;exitDy=0;entryX=0.664;entryY=0.919;entryDx=0;entryDy=0;entryPerimeter=0;" edge="1" source="BD0k8di83b8WuerWBVUI-332" target="BD0k8di83b8WuerWBVUI-333" parent="1">
          <mxGeometry relative="1" as="geometry">
            <mxPoint x="1875" y="278.5" as="targetPoint" />
            <mxPoint x="1900" y="253.5" as="sourcePoint" />
          </mxGeometry>
        </mxCell>
        <mxCell id="BD0k8di83b8WuerWBVUI-340" style="rounded=0;orthogonalLoop=1;jettySize=auto;html=1;strokeWidth=4;sketch=1;curveFitting=1;jiggle=2;strokeColor=#424242;exitX=0.5;exitY=0;exitDx=0;exitDy=0;entryX=1;entryY=1;entryDx=0;entryDy=0;" edge="1" source="BD0k8di83b8WuerWBVUI-337" target="BD0k8di83b8WuerWBVUI-335" parent="1">
          <mxGeometry relative="1" as="geometry">
            <mxPoint x="1959" y="292" as="targetPoint" />
            <mxPoint x="1915" y="178.5" as="sourcePoint" />
          </mxGeometry>
        </mxCell>
        <mxCell id="BD0k8di83b8WuerWBVUI-341" style="rounded=0;orthogonalLoop=1;jettySize=auto;html=1;strokeWidth=4;sketch=1;curveFitting=1;jiggle=2;strokeColor=#424242;entryX=0.224;entryY=0.963;entryDx=0;entryDy=0;exitX=0.892;exitY=0.249;exitDx=0;exitDy=0;exitPerimeter=0;entryPerimeter=0;" edge="1" source="BD0k8di83b8WuerWBVUI-332" target="BD0k8di83b8WuerWBVUI-337" parent="1">
          <mxGeometry relative="1" as="geometry">
            <mxPoint x="1873" y="295.5" as="targetPoint" />
            <mxPoint x="1880" y="435.5" as="sourcePoint" />
          </mxGeometry>
        </mxCell>
        <mxCell id="BD0k8di83b8WuerWBVUI-342" style="rounded=0;orthogonalLoop=1;jettySize=auto;html=1;strokeWidth=3;sketch=1;curveFitting=1;jiggle=2;strokeColor=#424242;exitX=0.309;exitY=-0.05;exitDx=0;exitDy=0;entryX=0.961;entryY=0.914;entryDx=0;entryDy=0;exitPerimeter=0;entryPerimeter=0;" edge="1" source="BD0k8di83b8WuerWBVUI-333" target="BD0k8di83b8WuerWBVUI-338" parent="1">
          <mxGeometry relative="1" as="geometry">
            <mxPoint x="1775" y="305.5" as="targetPoint" />
            <mxPoint x="1826" y="361.5" as="sourcePoint" />
          </mxGeometry>
        </mxCell>
        <mxCell id="BD0k8di83b8WuerWBVUI-343" style="rounded=0;orthogonalLoop=1;jettySize=auto;html=1;strokeWidth=3;sketch=1;curveFitting=1;jiggle=2;strokeColor=#424242;exitX=1;exitY=0;exitDx=0;exitDy=0;entryX=0.004;entryY=0.871;entryDx=0;entryDy=0;entryPerimeter=0;" edge="1" source="BD0k8di83b8WuerWBVUI-338" target="BD0k8di83b8WuerWBVUI-335" parent="1">
          <mxGeometry relative="1" as="geometry">
            <mxPoint x="1870" y="308.5" as="targetPoint" />
            <mxPoint x="1854" y="361.5" as="sourcePoint" />
          </mxGeometry>
        </mxCell>
        <mxCell id="BD0k8di83b8WuerWBVUI-344" style="rounded=0;orthogonalLoop=1;jettySize=auto;html=1;strokeWidth=4;sketch=1;curveFitting=1;jiggle=2;strokeColor=#424242;entryX=0.5;entryY=1;entryDx=0;entryDy=0;exitX=0.5;exitY=0;exitDx=0;exitDy=0;" edge="1" target="BD0k8di83b8WuerWBVUI-336" parent="1" source="BD0k8di83b8WuerWBVUI-335">
          <mxGeometry relative="1" as="geometry">
            <mxPoint x="1975" y="297" as="targetPoint" />
            <mxPoint x="1890" y="168" as="sourcePoint" />
          </mxGeometry>
        </mxCell>
        <mxCell id="BD0k8di83b8WuerWBVUI-345" style="rounded=0;orthogonalLoop=1;jettySize=auto;html=1;strokeWidth=4;sketch=1;curveFitting=1;jiggle=2;strokeColor=#424242;entryX=0.767;entryY=1.071;entryDx=0;entryDy=0;entryPerimeter=0;exitX=-0.018;exitY=0.325;exitDx=0;exitDy=0;exitPerimeter=0;" edge="1" source="BD0k8di83b8WuerWBVUI-332" target="BD0k8di83b8WuerWBVUI-334" parent="1">
          <mxGeometry relative="1" as="geometry">
            <mxPoint x="1877" y="405" as="targetPoint" />
            <mxPoint x="1860" y="448" as="sourcePoint" />
          </mxGeometry>
        </mxCell>
        <mxCell id="BD0k8di83b8WuerWBVUI-346" style="rounded=0;orthogonalLoop=1;jettySize=auto;html=1;strokeWidth=3;sketch=1;curveFitting=1;jiggle=2;strokeColor=#424242;exitX=0.612;exitY=-0.011;exitDx=0;exitDy=0;entryX=0.237;entryY=0.943;entryDx=0;entryDy=0;exitPerimeter=0;entryPerimeter=0;" edge="1" source="BD0k8di83b8WuerWBVUI-334" target="BD0k8di83b8WuerWBVUI-338" parent="1">
          <mxGeometry relative="1" as="geometry">
            <mxPoint x="1817" y="285.5" as="targetPoint" />
            <mxPoint x="1780" y="358.5" as="sourcePoint" />
          </mxGeometry>
        </mxCell>
        <mxCell id="BD0k8di83b8WuerWBVUI-347" value="before reading problem statement" style="text;html=1;align=center;verticalAlign=middle;resizable=0;points=[];autosize=1;fillColor=default;strokeColor=default;fontSize=16;strokeWidth=2;" vertex="1" parent="1">
          <mxGeometry x="50" y="528" width="260" height="30" as="geometry" />
        </mxCell>
        <mxCell id="BD0k8di83b8WuerWBVUI-348" value="remembering related entities" style="text;html=1;align=center;verticalAlign=middle;resizable=0;points=[];autosize=1;fillColor=default;strokeColor=default;fontSize=16;strokeWidth=2;" vertex="1" parent="1">
          <mxGeometry x="500" y="528" width="230" height="30" as="geometry" />
        </mxCell>
        <mxCell id="BD0k8di83b8WuerWBVUI-350" value="trying to relate" style="text;html=1;align=center;verticalAlign=middle;resizable=0;points=[];autosize=1;fillColor=default;strokeColor=default;fontSize=16;strokeWidth=2;" vertex="1" parent="1">
          <mxGeometry x="965" y="528" width="120" height="30" as="geometry" />
        </mxCell>
        <mxCell id="BD0k8di83b8WuerWBVUI-351" value="figuring out the relation between them" style="text;html=1;align=center;verticalAlign=middle;resizable=0;points=[];autosize=1;fillColor=default;strokeColor=default;fontSize=16;strokeWidth=2;" vertex="1" parent="1">
          <mxGeometry x="1370" y="528" width="290" height="30" as="geometry" />
        </mxCell>
        <mxCell id="BD0k8di83b8WuerWBVUI-352" value="understanding" style="text;html=1;align=center;verticalAlign=middle;resizable=0;points=[];autosize=1;fillColor=default;strokeColor=default;fontSize=16;strokeWidth=2;" vertex="1" parent="1">
          <mxGeometry x="1830" y="528" width="120" height="30" as="geometry" />
        </mxCell>
        <mxCell id="BD0k8di83b8WuerWBVUI-355" value="" style="ellipse;whiteSpace=wrap;html=1;aspect=fixed;fillColor=#424242;fontColor=#333333;strokeColor=#666666;strokeWidth=3;fillStyle=solid;" vertex="1" parent="1">
          <mxGeometry x="2200" y="460" width="40" height="40" as="geometry" />
        </mxCell>
        <mxCell id="BD0k8di83b8WuerWBVUI-356" value="" style="ellipse;whiteSpace=wrap;html=1;aspect=fixed;fillColor=#e1d5e7;strokeColor=#9673a6;strokeWidth=3;fillStyle=solid;" vertex="1" parent="1">
          <mxGeometry x="2200" y="375" width="40" height="40" as="geometry" />
        </mxCell>
        <mxCell id="BD0k8di83b8WuerWBVUI-357" value="" style="ellipse;whiteSpace=wrap;html=1;aspect=fixed;fillColor=#e1d5e7;strokeColor=#9673a6;strokeWidth=3;fillStyle=solid;" vertex="1" parent="1">
          <mxGeometry x="2110" y="373" width="40" height="40" as="geometry" />
        </mxCell>
        <mxCell id="BD0k8di83b8WuerWBVUI-358" value="" style="ellipse;whiteSpace=wrap;html=1;aspect=fixed;fillColor=#ffe6cc;strokeColor=#d79b00;strokeWidth=3;fillStyle=solid;" vertex="1" parent="1">
          <mxGeometry x="2220" y="220" width="40" height="40" as="geometry" />
        </mxCell>
        <mxCell id="BD0k8di83b8WuerWBVUI-359" value="" style="ellipse;whiteSpace=wrap;html=1;aspect=fixed;fillColor=#424242;strokeColor=#666666;strokeWidth=3;fillStyle=solid;" vertex="1" parent="1">
          <mxGeometry x="2220" y="130" width="40" height="40" as="geometry" />
        </mxCell>
        <mxCell id="BD0k8di83b8WuerWBVUI-360" value="" style="ellipse;whiteSpace=wrap;html=1;aspect=fixed;fillColor=#e1d5e7;strokeColor=#9673a6;strokeWidth=3;fillStyle=solid;" vertex="1" parent="1">
          <mxGeometry x="2290" y="373" width="40" height="40" as="geometry" />
        </mxCell>
        <mxCell id="BD0k8di83b8WuerWBVUI-361" value="" style="ellipse;whiteSpace=wrap;html=1;aspect=fixed;fillColor=#d5e8d4;strokeColor=#82b366;strokeWidth=3;fillStyle=solid;" vertex="1" parent="1">
          <mxGeometry x="2150" y="290" width="40" height="40" as="geometry" />
        </mxCell>
        <mxCell id="BD0k8di83b8WuerWBVUI-362" style="rounded=0;orthogonalLoop=1;jettySize=auto;html=1;strokeWidth=4;sketch=1;curveFitting=1;jiggle=2;strokeColor=#424242;exitX=0.5;exitY=0;exitDx=0;exitDy=0;entryX=0.664;entryY=0.919;entryDx=0;entryDy=0;entryPerimeter=0;" edge="1" parent="1" source="BD0k8di83b8WuerWBVUI-355" target="BD0k8di83b8WuerWBVUI-356">
          <mxGeometry relative="1" as="geometry">
            <mxPoint x="2205" y="278.5" as="targetPoint" />
            <mxPoint x="2230" y="253.5" as="sourcePoint" />
          </mxGeometry>
        </mxCell>
        <mxCell id="BD0k8di83b8WuerWBVUI-363" style="rounded=0;orthogonalLoop=1;jettySize=auto;html=1;strokeWidth=4;sketch=1;curveFitting=1;jiggle=2;strokeColor=#424242;exitX=0.5;exitY=0;exitDx=0;exitDy=0;entryX=1;entryY=1;entryDx=0;entryDy=0;" edge="1" parent="1" source="BD0k8di83b8WuerWBVUI-360" target="BD0k8di83b8WuerWBVUI-358">
          <mxGeometry relative="1" as="geometry">
            <mxPoint x="2289" y="292" as="targetPoint" />
            <mxPoint x="2245" y="178.5" as="sourcePoint" />
          </mxGeometry>
        </mxCell>
        <mxCell id="BD0k8di83b8WuerWBVUI-364" style="rounded=0;orthogonalLoop=1;jettySize=auto;html=1;strokeWidth=4;sketch=1;curveFitting=1;jiggle=2;strokeColor=#424242;entryX=0.224;entryY=0.963;entryDx=0;entryDy=0;exitX=0.892;exitY=0.249;exitDx=0;exitDy=0;exitPerimeter=0;entryPerimeter=0;" edge="1" parent="1" source="BD0k8di83b8WuerWBVUI-355" target="BD0k8di83b8WuerWBVUI-360">
          <mxGeometry relative="1" as="geometry">
            <mxPoint x="2203" y="295.5" as="targetPoint" />
            <mxPoint x="2210" y="435.5" as="sourcePoint" />
          </mxGeometry>
        </mxCell>
        <mxCell id="BD0k8di83b8WuerWBVUI-365" style="rounded=0;orthogonalLoop=1;jettySize=auto;html=1;strokeWidth=3;sketch=1;curveFitting=1;jiggle=2;strokeColor=#424242;exitX=0.309;exitY=-0.05;exitDx=0;exitDy=0;entryX=0.961;entryY=0.914;entryDx=0;entryDy=0;exitPerimeter=0;entryPerimeter=0;" edge="1" parent="1" source="BD0k8di83b8WuerWBVUI-356" target="BD0k8di83b8WuerWBVUI-361">
          <mxGeometry relative="1" as="geometry">
            <mxPoint x="2105" y="305.5" as="targetPoint" />
            <mxPoint x="2156" y="361.5" as="sourcePoint" />
          </mxGeometry>
        </mxCell>
        <mxCell id="BD0k8di83b8WuerWBVUI-366" style="rounded=0;orthogonalLoop=1;jettySize=auto;html=1;strokeWidth=3;sketch=1;curveFitting=1;jiggle=2;strokeColor=#424242;exitX=1;exitY=0;exitDx=0;exitDy=0;entryX=0.004;entryY=0.871;entryDx=0;entryDy=0;entryPerimeter=0;" edge="1" parent="1" source="BD0k8di83b8WuerWBVUI-361" target="BD0k8di83b8WuerWBVUI-358">
          <mxGeometry relative="1" as="geometry">
            <mxPoint x="2200" y="308.5" as="targetPoint" />
            <mxPoint x="2184" y="361.5" as="sourcePoint" />
          </mxGeometry>
        </mxCell>
        <mxCell id="BD0k8di83b8WuerWBVUI-367" style="rounded=0;orthogonalLoop=1;jettySize=auto;html=1;strokeWidth=4;sketch=1;curveFitting=1;jiggle=2;strokeColor=#424242;entryX=0.5;entryY=1;entryDx=0;entryDy=0;exitX=0.5;exitY=0;exitDx=0;exitDy=0;" edge="1" parent="1" source="BD0k8di83b8WuerWBVUI-358" target="BD0k8di83b8WuerWBVUI-359">
          <mxGeometry relative="1" as="geometry">
            <mxPoint x="2305" y="297" as="targetPoint" />
            <mxPoint x="2220" y="168" as="sourcePoint" />
          </mxGeometry>
        </mxCell>
        <mxCell id="BD0k8di83b8WuerWBVUI-368" style="rounded=0;orthogonalLoop=1;jettySize=auto;html=1;strokeWidth=4;sketch=1;curveFitting=1;jiggle=2;strokeColor=#424242;entryX=0.767;entryY=1.071;entryDx=0;entryDy=0;entryPerimeter=0;exitX=-0.018;exitY=0.325;exitDx=0;exitDy=0;exitPerimeter=0;" edge="1" parent="1" source="BD0k8di83b8WuerWBVUI-355" target="BD0k8di83b8WuerWBVUI-357">
          <mxGeometry relative="1" as="geometry">
            <mxPoint x="2207" y="405" as="targetPoint" />
            <mxPoint x="2190" y="448" as="sourcePoint" />
          </mxGeometry>
        </mxCell>
        <mxCell id="BD0k8di83b8WuerWBVUI-369" style="rounded=0;orthogonalLoop=1;jettySize=auto;html=1;strokeWidth=3;sketch=1;curveFitting=1;jiggle=2;strokeColor=#424242;exitX=0.612;exitY=-0.011;exitDx=0;exitDy=0;entryX=0.237;entryY=0.943;entryDx=0;entryDy=0;exitPerimeter=0;entryPerimeter=0;" edge="1" parent="1" source="BD0k8di83b8WuerWBVUI-357" target="BD0k8di83b8WuerWBVUI-361">
          <mxGeometry relative="1" as="geometry">
            <mxPoint x="2147" y="285.5" as="targetPoint" />
            <mxPoint x="2110" y="358.5" as="sourcePoint" />
          </mxGeometry>
        </mxCell>
        <mxCell id="BD0k8di83b8WuerWBVUI-370" value="understanding" style="text;html=1;align=center;verticalAlign=middle;resizable=0;points=[];autosize=1;fillColor=default;strokeColor=default;fontSize=16;strokeWidth=2;" vertex="1" parent="1">
          <mxGeometry x="2160" y="528" width="120" height="30" as="geometry" />
        </mxCell>
      </root>
    </mxGraphModel>
  </diagram>
</mxfile>
